<mxfile host="app.diagrams.net" agent="Mozilla/5.0 (Windows NT 10.0; Win64; x64) AppleWebKit/537.36 (KHTML, like Gecko) Chrome/131.0.0.0 Safari/537.36" version="25.0.3">
  <diagram id="C5RBs43oDa-KdzZeNtuy" name="Page-1">
    <mxGraphModel dx="2003" dy="741" grid="1" gridSize="10" guides="1" tooltips="1" connect="1" arrows="1" fold="1" page="1" pageScale="1" pageWidth="827" pageHeight="1169" math="0" shadow="0">
      <root>
        <mxCell id="WIyWlLk6GJQsqaUBKTNV-0" />
        <mxCell id="WIyWlLk6GJQsqaUBKTNV-1" parent="WIyWlLk6GJQsqaUBKTNV-0" />
        <mxCell id="znNQXt6oiHb2Llr82gNU-51" value="Seat" style="swimlane;fontStyle=0;align=center;verticalAlign=top;childLayout=stackLayout;horizontal=1;startSize=26;horizontalStack=0;resizeParent=1;resizeLast=0;collapsible=1;marginBottom=0;rounded=0;shadow=0;strokeWidth=1;" parent="WIyWlLk6GJQsqaUBKTNV-1" vertex="1">
          <mxGeometry x="980" y="464" width="160" height="180" as="geometry">
            <mxRectangle x="130" y="380" width="160" height="26" as="alternateBounds" />
          </mxGeometry>
        </mxCell>
        <mxCell id="znNQXt6oiHb2Llr82gNU-52" value="SeatID NUMBER(5)&#xa;PRIMARY KEY" style="text;align=left;verticalAlign=top;spacingLeft=4;spacingRight=4;overflow=hidden;rotatable=0;points=[[0,0.5],[1,0.5]];portConstraint=eastwest;" parent="znNQXt6oiHb2Llr82gNU-51" vertex="1">
          <mxGeometry y="26" width="160" height="34" as="geometry" />
        </mxCell>
        <mxCell id="znNQXt6oiHb2Llr82gNU-53" value="SeatRow VARCHAR2(50)&#xa;NOT NULL" style="text;align=left;verticalAlign=top;spacingLeft=4;spacingRight=4;overflow=hidden;rotatable=0;points=[[0,0.5],[1,0.5]];portConstraint=eastwest;rounded=0;shadow=0;html=0;" parent="znNQXt6oiHb2Llr82gNU-51" vertex="1">
          <mxGeometry y="60" width="160" height="40" as="geometry" />
        </mxCell>
        <mxCell id="znNQXt6oiHb2Llr82gNU-54" value="SeatNumber NUMBER(5)&#xa;NOT NULL" style="text;align=left;verticalAlign=top;spacingLeft=4;spacingRight=4;overflow=hidden;rotatable=0;points=[[0,0.5],[1,0.5]];portConstraint=eastwest;rounded=0;shadow=0;html=0;" parent="znNQXt6oiHb2Llr82gNU-51" vertex="1">
          <mxGeometry y="100" width="160" height="40" as="geometry" />
        </mxCell>
        <mxCell id="FNTynwL7D7JjEhf0KSwz-165" value="SeatBlock VARCHAR2(50)&#xa;NOT NULL" style="text;align=left;verticalAlign=top;spacingLeft=4;spacingRight=4;overflow=hidden;rotatable=0;points=[[0,0.5],[1,0.5]];portConstraint=eastwest;rounded=0;shadow=0;html=0;" parent="znNQXt6oiHb2Llr82gNU-51" vertex="1">
          <mxGeometry y="140" width="160" height="40" as="geometry" />
        </mxCell>
        <mxCell id="zkfFHV4jXpPFQw0GAbJ--13" value="Booking" style="swimlane;fontStyle=0;align=center;verticalAlign=top;childLayout=stackLayout;horizontal=1;startSize=26;horizontalStack=0;resizeParent=1;resizeLast=0;collapsible=1;marginBottom=0;rounded=0;shadow=0;strokeWidth=1;" parent="WIyWlLk6GJQsqaUBKTNV-1" vertex="1">
          <mxGeometry x="1140" y="454" width="180" height="190" as="geometry">
            <mxRectangle x="340" y="380" width="170" height="26" as="alternateBounds" />
          </mxGeometry>
        </mxCell>
        <mxCell id="zkfFHV4jXpPFQw0GAbJ--14" value="BookingID NUMBER(5)&#xa;PRIMARY KEY" style="text;align=left;verticalAlign=top;spacingLeft=4;spacingRight=4;overflow=hidden;rotatable=0;points=[[0,0.5],[1,0.5]];portConstraint=eastwest;" parent="zkfFHV4jXpPFQw0GAbJ--13" vertex="1">
          <mxGeometry y="26" width="180" height="34" as="geometry" />
        </mxCell>
        <mxCell id="znNQXt6oiHb2Llr82gNU-12" value="BookingDate DATE NOT NULL" style="text;align=left;verticalAlign=top;spacingLeft=4;spacingRight=4;overflow=hidden;rotatable=0;points=[[0,0.5],[1,0.5]];portConstraint=eastwest;" parent="zkfFHV4jXpPFQw0GAbJ--13" vertex="1">
          <mxGeometry y="60" width="180" height="26" as="geometry" />
        </mxCell>
        <mxCell id="FNTynwL7D7JjEhf0KSwz-19" value="CustomerID NUMBER(5)&#xa;REFERENCES Customer&#xa;(CustomerID) NOT NULL" style="text;align=left;verticalAlign=top;spacingLeft=4;spacingRight=4;overflow=hidden;rotatable=0;points=[[0,0.5],[1,0.5]];portConstraint=eastwest;" parent="zkfFHV4jXpPFQw0GAbJ--13" vertex="1">
          <mxGeometry y="86" width="180" height="54" as="geometry" />
        </mxCell>
        <mxCell id="FNTynwL7D7JjEhf0KSwz-22" value="PerformanceID NUMBER(5)&#xa;REFERENCES Performance&#xa;(PerformanceID)NOT NULL" style="text;align=left;verticalAlign=top;spacingLeft=4;spacingRight=4;overflow=hidden;rotatable=0;points=[[0,0.5],[1,0.5]];portConstraint=eastwest;" parent="zkfFHV4jXpPFQw0GAbJ--13" vertex="1">
          <mxGeometry y="140" width="180" height="50" as="geometry" />
        </mxCell>
        <mxCell id="zkfFHV4jXpPFQw0GAbJ--17" value="Production" style="swimlane;fontStyle=0;align=center;verticalAlign=top;childLayout=stackLayout;horizontal=1;startSize=26;horizontalStack=0;resizeParent=1;resizeLast=0;collapsible=1;marginBottom=0;rounded=0;shadow=0;strokeWidth=1;" parent="WIyWlLk6GJQsqaUBKTNV-1" vertex="1">
          <mxGeometry x="570" y="70" width="260" height="210" as="geometry">
            <mxRectangle x="550" y="140" width="160" height="26" as="alternateBounds" />
          </mxGeometry>
        </mxCell>
        <mxCell id="zkfFHV4jXpPFQw0GAbJ--18" value="ProductionID NUMBER(5) PRIMARY KEY" style="text;align=left;verticalAlign=top;spacingLeft=4;spacingRight=4;overflow=hidden;rotatable=0;points=[[0,0.5],[1,0.5]];portConstraint=eastwest;" parent="zkfFHV4jXpPFQw0GAbJ--17" vertex="1">
          <mxGeometry y="26" width="260" height="26" as="geometry" />
        </mxCell>
        <mxCell id="zkfFHV4jXpPFQw0GAbJ--19" value="Title VARCHAR2(50) NOT NULL" style="text;align=left;verticalAlign=top;spacingLeft=4;spacingRight=4;overflow=hidden;rotatable=0;points=[[0,0.5],[1,0.5]];portConstraint=eastwest;rounded=0;shadow=0;html=0;" parent="zkfFHV4jXpPFQw0GAbJ--17" vertex="1">
          <mxGeometry y="52" width="260" height="26" as="geometry" />
        </mxCell>
        <mxCell id="zkfFHV4jXpPFQw0GAbJ--21" value="ProductionDescription VARCHAR2(500)&#xa;NOT NULL" style="text;align=left;verticalAlign=top;spacingLeft=4;spacingRight=4;overflow=hidden;rotatable=0;points=[[0,0.5],[1,0.5]];portConstraint=eastwest;rounded=0;shadow=0;html=0;" parent="zkfFHV4jXpPFQw0GAbJ--17" vertex="1">
          <mxGeometry y="78" width="260" height="32" as="geometry" />
        </mxCell>
        <mxCell id="zkfFHV4jXpPFQw0GAbJ--22" value="ProductionDuration NUMBER(4) NOT NULL" style="text;align=left;verticalAlign=top;spacingLeft=4;spacingRight=4;overflow=hidden;rotatable=0;points=[[0,0.5],[1,0.5]];portConstraint=eastwest;rounded=0;shadow=0;html=0;" parent="zkfFHV4jXpPFQw0GAbJ--17" vertex="1">
          <mxGeometry y="110" width="260" height="26" as="geometry" />
        </mxCell>
        <mxCell id="ti9lxB1Ob0P78j63-BCw-30" value="ProductionTypeID NUMBER(5) REFERENCES&#xa;ProductionType(ProdctionTypeID)" style="text;align=left;verticalAlign=top;spacingLeft=4;spacingRight=4;overflow=hidden;rotatable=0;points=[[0,0.5],[1,0.5]];portConstraint=eastwest;rounded=0;shadow=0;html=0;" parent="zkfFHV4jXpPFQw0GAbJ--17" vertex="1">
          <mxGeometry y="136" width="260" height="44" as="geometry" />
        </mxCell>
        <mxCell id="FNTynwL7D7JjEhf0KSwz-91" style="edgeStyle=orthogonalEdgeStyle;rounded=1;orthogonalLoop=1;jettySize=auto;html=1;entryX=1;entryY=0.5;entryDx=0;entryDy=0;curved=0;endArrow=none;endFill=0;exitX=1;exitY=0.923;exitDx=0;exitDy=0;exitPerimeter=0;startArrow=classic;startFill=1;" parent="WIyWlLk6GJQsqaUBKTNV-1" source="znNQXt6oiHb2Llr82gNU-2" target="FNTynwL7D7JjEhf0KSwz-22" edge="1">
          <mxGeometry relative="1" as="geometry">
            <mxPoint x="1110" y="170" as="sourcePoint" />
            <Array as="points">
              <mxPoint x="1360" y="137" />
              <mxPoint x="1360" y="619" />
            </Array>
          </mxGeometry>
        </mxCell>
        <mxCell id="znNQXt6oiHb2Llr82gNU-1" value="Performances" style="swimlane;fontStyle=0;align=center;verticalAlign=top;childLayout=stackLayout;horizontal=1;startSize=26;horizontalStack=0;resizeParent=1;resizeLast=0;collapsible=1;marginBottom=0;rounded=0;shadow=0;strokeWidth=1;" parent="WIyWlLk6GJQsqaUBKTNV-1" vertex="1">
          <mxGeometry x="930" y="80" width="160" height="220" as="geometry">
            <mxRectangle x="550" y="140" width="160" height="26" as="alternateBounds" />
          </mxGeometry>
        </mxCell>
        <mxCell id="znNQXt6oiHb2Llr82gNU-2" value="PerformanceID NUMBER(5)&#xa;PRIMARY KEY" style="text;align=left;verticalAlign=top;spacingLeft=4;spacingRight=4;overflow=hidden;rotatable=0;points=[[0,0.5],[1,0.5]];portConstraint=eastwest;" parent="znNQXt6oiHb2Llr82gNU-1" vertex="1">
          <mxGeometry y="26" width="160" height="34" as="geometry" />
        </mxCell>
        <mxCell id="znNQXt6oiHb2Llr82gNU-3" value="PerformanceDate DATE&#xa;NOT NULL" style="text;align=left;verticalAlign=top;spacingLeft=4;spacingRight=4;overflow=hidden;rotatable=0;points=[[0,0.5],[1,0.5]];portConstraint=eastwest;rounded=0;shadow=0;html=0;" parent="znNQXt6oiHb2Llr82gNU-1" vertex="1">
          <mxGeometry y="60" width="160" height="40" as="geometry" />
        </mxCell>
        <mxCell id="znNQXt6oiHb2Llr82gNU-4" value="PerformanceTime NUMBER&#xa;(5) NOT NULL" style="text;align=left;verticalAlign=top;spacingLeft=4;spacingRight=4;overflow=hidden;rotatable=0;points=[[0,0.5],[1,0.5]];portConstraint=eastwest;rounded=0;shadow=0;html=0;" parent="znNQXt6oiHb2Llr82gNU-1" vertex="1">
          <mxGeometry y="100" width="160" height="30" as="geometry" />
        </mxCell>
        <mxCell id="znNQXt6oiHb2Llr82gNU-5" value="availableSeats NUMBER(4)&#xa;NOT NULL" style="text;align=left;verticalAlign=top;spacingLeft=4;spacingRight=4;overflow=hidden;rotatable=0;points=[[0,0.5],[1,0.5]];portConstraint=eastwest;rounded=0;shadow=0;html=0;" parent="znNQXt6oiHb2Llr82gNU-1" vertex="1">
          <mxGeometry y="130" width="160" height="40" as="geometry" />
        </mxCell>
        <mxCell id="FNTynwL7D7JjEhf0KSwz-23" value="ProductionID NUMBER(5)&#xa;REFERENCES Production&#xa;(ProductionID)" style="text;align=left;verticalAlign=top;spacingLeft=4;spacingRight=4;overflow=hidden;rotatable=0;points=[[0,0.5],[1,0.5]];portConstraint=eastwest;rounded=0;shadow=0;html=0;" parent="znNQXt6oiHb2Llr82gNU-1" vertex="1">
          <mxGeometry y="170" width="160" height="50" as="geometry" />
        </mxCell>
        <mxCell id="znNQXt6oiHb2Llr82gNU-46" style="edgeStyle=orthogonalEdgeStyle;rounded=1;orthogonalLoop=1;jettySize=auto;html=1;exitX=1;exitY=0.5;exitDx=0;exitDy=0;curved=0;shadow=0;endArrow=none;endFill=0;startArrow=classic;startFill=1;" parent="WIyWlLk6GJQsqaUBKTNV-1" source="zkfFHV4jXpPFQw0GAbJ--18" target="FNTynwL7D7JjEhf0KSwz-23" edge="1">
          <mxGeometry relative="1" as="geometry" />
        </mxCell>
        <mxCell id="znNQXt6oiHb2Llr82gNU-47" value="1...1" style="resizable=0;align=left;verticalAlign=bottom;labelBackgroundColor=none;fontSize=12;" parent="WIyWlLk6GJQsqaUBKTNV-1" connectable="0" vertex="1">
          <mxGeometry x="829.9999999999998" y="109.99555555555554" as="geometry" />
        </mxCell>
        <mxCell id="znNQXt6oiHb2Llr82gNU-48" value="1...*" style="resizable=0;align=left;verticalAlign=bottom;labelBackgroundColor=none;fontSize=12;" parent="WIyWlLk6GJQsqaUBKTNV-1" connectable="0" vertex="1">
          <mxGeometry x="899.9999999999998" y="269.99555555555554" as="geometry" />
        </mxCell>
        <mxCell id="znNQXt6oiHb2Llr82gNU-65" value="1...*" style="resizable=0;align=left;verticalAlign=bottom;labelBackgroundColor=none;fontSize=12;" parent="WIyWlLk6GJQsqaUBKTNV-1" connectable="0" vertex="1">
          <mxGeometry x="1320" y="634.9985714285715" as="geometry" />
        </mxCell>
        <mxCell id="znNQXt6oiHb2Llr82gNU-66" value="1...1" style="resizable=0;align=left;verticalAlign=bottom;labelBackgroundColor=none;fontSize=12;" parent="WIyWlLk6GJQsqaUBKTNV-1" connectable="0" vertex="1">
          <mxGeometry x="1090" y="149.99857142857144" as="geometry" />
        </mxCell>
        <mxCell id="FNTynwL7D7JjEhf0KSwz-107" style="edgeStyle=orthogonalEdgeStyle;rounded=1;orthogonalLoop=1;jettySize=auto;html=1;curved=0;endArrow=none;endFill=0;startArrow=classic;startFill=1;exitX=0;exitY=0.5;exitDx=0;exitDy=0;" parent="WIyWlLk6GJQsqaUBKTNV-1" source="FNTynwL7D7JjEhf0KSwz-1" target="FNTynwL7D7JjEhf0KSwz-121" edge="1">
          <mxGeometry relative="1" as="geometry">
            <mxPoint x="440" y="823" as="sourcePoint" />
            <mxPoint x="390" y="720" as="targetPoint" />
            <Array as="points">
              <mxPoint x="370" y="783" />
              <mxPoint x="370" y="720" />
            </Array>
          </mxGeometry>
        </mxCell>
        <mxCell id="ti9lxB1Ob0P78j63-BCw-43" style="edgeStyle=orthogonalEdgeStyle;rounded=1;orthogonalLoop=1;jettySize=auto;html=1;exitX=1.006;exitY=0.154;exitDx=0;exitDy=0;curved=0;endArrow=none;endFill=0;exitPerimeter=0;startArrow=classic;startFill=1;" parent="WIyWlLk6GJQsqaUBKTNV-1" source="FNTynwL7D7JjEhf0KSwz-1" target="FNTynwL7D7JjEhf0KSwz-31" edge="1">
          <mxGeometry relative="1" as="geometry">
            <Array as="points">
              <mxPoint x="710" y="771" />
              <mxPoint x="710" y="600" />
              <mxPoint x="440" y="600" />
              <mxPoint x="440" y="520" />
            </Array>
          </mxGeometry>
        </mxCell>
        <mxCell id="FNTynwL7D7JjEhf0KSwz-0" value="Duties" style="swimlane;fontStyle=0;align=center;verticalAlign=top;childLayout=stackLayout;horizontal=1;startSize=26;horizontalStack=0;resizeParent=1;resizeLast=0;collapsible=1;marginBottom=0;rounded=0;shadow=0;strokeWidth=1;" parent="WIyWlLk6GJQsqaUBKTNV-1" vertex="1">
          <mxGeometry x="450" y="740" width="190" height="100" as="geometry">
            <mxRectangle x="130" y="380" width="160" height="26" as="alternateBounds" />
          </mxGeometry>
        </mxCell>
        <mxCell id="FNTynwL7D7JjEhf0KSwz-1" value="DutyID NUMBER(5) PRIMARY&#xa;KEY" style="text;align=left;verticalAlign=top;spacingLeft=4;spacingRight=4;overflow=hidden;rotatable=0;points=[[0,0.5],[1,0.5]];portConstraint=eastwest;" parent="FNTynwL7D7JjEhf0KSwz-0" vertex="1">
          <mxGeometry y="26" width="190" height="34" as="geometry" />
        </mxCell>
        <mxCell id="FNTynwL7D7JjEhf0KSwz-2" value="DutyDescription VARCHAR2(30)&#xa;NOT NULL" style="text;align=left;verticalAlign=top;spacingLeft=4;spacingRight=4;overflow=hidden;rotatable=0;points=[[0,0.5],[1,0.5]];portConstraint=eastwest;rounded=0;shadow=0;html=0;" parent="FNTynwL7D7JjEhf0KSwz-0" vertex="1">
          <mxGeometry y="60" width="190" height="40" as="geometry" />
        </mxCell>
        <mxCell id="FNTynwL7D7JjEhf0KSwz-8" value="TicketSales" style="swimlane;fontStyle=0;align=center;verticalAlign=top;childLayout=stackLayout;horizontal=1;startSize=26;horizontalStack=0;resizeParent=1;resizeLast=0;collapsible=1;marginBottom=0;rounded=0;shadow=0;strokeWidth=1;" parent="WIyWlLk6GJQsqaUBKTNV-1" vertex="1">
          <mxGeometry x="140" y="80" width="300" height="170" as="geometry">
            <mxRectangle x="130" y="380" width="160" height="26" as="alternateBounds" />
          </mxGeometry>
        </mxCell>
        <mxCell id="FNTynwL7D7JjEhf0KSwz-9" value="SummaryID NUMBER(5) PRIMARY KEY" style="text;align=left;verticalAlign=top;spacingLeft=4;spacingRight=4;overflow=hidden;rotatable=0;points=[[0,0.5],[1,0.5]];portConstraint=eastwest;" parent="FNTynwL7D7JjEhf0KSwz-8" vertex="1">
          <mxGeometry y="26" width="300" height="26" as="geometry" />
        </mxCell>
        <mxCell id="FNTynwL7D7JjEhf0KSwz-10" value="Income NUMBER(10)" style="text;align=left;verticalAlign=top;spacingLeft=4;spacingRight=4;overflow=hidden;rotatable=0;points=[[0,0.5],[1,0.5]];portConstraint=eastwest;rounded=0;shadow=0;html=0;" parent="FNTynwL7D7JjEhf0KSwz-8" vertex="1">
          <mxGeometry y="52" width="300" height="26" as="geometry" />
        </mxCell>
        <mxCell id="FNTynwL7D7JjEhf0KSwz-11" value="ConcessionsValue NUMBER(10)" style="text;align=left;verticalAlign=top;spacingLeft=4;spacingRight=4;overflow=hidden;rotatable=0;points=[[0,0.5],[1,0.5]];portConstraint=eastwest;rounded=0;shadow=0;html=0;" parent="FNTynwL7D7JjEhf0KSwz-8" vertex="1">
          <mxGeometry y="78" width="300" height="26" as="geometry" />
        </mxCell>
        <mxCell id="FNTynwL7D7JjEhf0KSwz-12" value="UnsoldSeats NUMBER(5)" style="text;align=left;verticalAlign=top;spacingLeft=4;spacingRight=4;overflow=hidden;rotatable=0;points=[[0,0.5],[1,0.5]];portConstraint=eastwest;rounded=0;shadow=0;html=0;" parent="FNTynwL7D7JjEhf0KSwz-8" vertex="1">
          <mxGeometry y="104" width="300" height="26" as="geometry" />
        </mxCell>
        <mxCell id="ti9lxB1Ob0P78j63-BCw-27" value="ProductionID NUMBER(5) REFERENCES&#xa;Production(ProductionID) NOT NULL" style="text;align=left;verticalAlign=top;spacingLeft=4;spacingRight=4;overflow=hidden;rotatable=0;points=[[0,0.5],[1,0.5]];portConstraint=eastwest;rounded=0;shadow=0;html=0;" parent="FNTynwL7D7JjEhf0KSwz-8" vertex="1">
          <mxGeometry y="130" width="300" height="40" as="geometry" />
        </mxCell>
        <mxCell id="FNTynwL7D7JjEhf0KSwz-16" value="1...1" style="resizable=0;align=left;verticalAlign=bottom;labelBackgroundColor=none;fontSize=12;rotation=0;" parent="WIyWlLk6GJQsqaUBKTNV-1" connectable="0" vertex="1">
          <mxGeometry x="440" y="219.9985714285715" as="geometry" />
        </mxCell>
        <mxCell id="FNTynwL7D7JjEhf0KSwz-17" value="1...1" style="resizable=0;align=left;verticalAlign=bottom;labelBackgroundColor=none;fontSize=12;rotation=0;" parent="WIyWlLk6GJQsqaUBKTNV-1" connectable="0" vertex="1">
          <mxGeometry x="540" y="99.9985714285715" as="geometry" />
        </mxCell>
        <mxCell id="FNTynwL7D7JjEhf0KSwz-26" value="DutyAllocation" style="swimlane;fontStyle=0;align=center;verticalAlign=top;childLayout=stackLayout;horizontal=1;startSize=26;horizontalStack=0;resizeParent=1;resizeLast=0;collapsible=1;marginBottom=0;rounded=0;shadow=0;strokeWidth=1;" parent="WIyWlLk6GJQsqaUBKTNV-1" vertex="1">
          <mxGeometry x="450" y="410" width="270" height="180" as="geometry">
            <mxRectangle x="130" y="380" width="160" height="26" as="alternateBounds" />
          </mxGeometry>
        </mxCell>
        <mxCell id="FNTynwL7D7JjEhf0KSwz-27" value="DutyAllocationID NUMBER(5) PRIMARY KEY" style="text;align=left;verticalAlign=top;spacingLeft=4;spacingRight=4;overflow=hidden;rotatable=0;points=[[0,0.5],[1,0.5]];portConstraint=eastwest;" parent="FNTynwL7D7JjEhf0KSwz-26" vertex="1">
          <mxGeometry y="26" width="270" height="26" as="geometry" />
        </mxCell>
        <mxCell id="FNTynwL7D7JjEhf0KSwz-28" value="PerformanceID NUMBER(5) REFERENCES&#xa;Performances(PerformanceID) NOT NULL" style="text;align=left;verticalAlign=top;spacingLeft=4;spacingRight=4;overflow=hidden;rotatable=0;points=[[0,0.5],[1,0.5]];portConstraint=eastwest;rounded=0;shadow=0;html=0;" parent="FNTynwL7D7JjEhf0KSwz-26" vertex="1">
          <mxGeometry y="52" width="270" height="38" as="geometry" />
        </mxCell>
        <mxCell id="FNTynwL7D7JjEhf0KSwz-31" value="DutyID NUMBER(5) REFERENCES Duties&#xa;(DutyID) NOT NULL" style="text;align=left;verticalAlign=top;spacingLeft=4;spacingRight=4;overflow=hidden;rotatable=0;points=[[0,0.5],[1,0.5]];portConstraint=eastwest;rounded=0;shadow=0;html=0;" parent="FNTynwL7D7JjEhf0KSwz-26" vertex="1">
          <mxGeometry y="90" width="270" height="40" as="geometry" />
        </mxCell>
        <mxCell id="FNTynwL7D7JjEhf0KSwz-128" value="MemberID NUMBER(5) REFERENCESMembers&#xa;(MemberID) NOT NULL" style="text;align=left;verticalAlign=top;spacingLeft=4;spacingRight=4;overflow=hidden;rotatable=0;points=[[0,0.5],[1,0.5]];portConstraint=eastwest;rounded=0;shadow=0;html=0;" parent="FNTynwL7D7JjEhf0KSwz-26" vertex="1">
          <mxGeometry y="130" width="270" height="40" as="geometry" />
        </mxCell>
        <mxCell id="FNTynwL7D7JjEhf0KSwz-35" value="1...*" style="resizable=0;align=left;verticalAlign=bottom;labelBackgroundColor=none;fontSize=12;" parent="WIyWlLk6GJQsqaUBKTNV-1" connectable="0" vertex="1">
          <mxGeometry x="729.9999999999998" y="459.9955555555555" as="geometry" />
        </mxCell>
        <mxCell id="FNTynwL7D7JjEhf0KSwz-36" value="1...1" style="resizable=0;align=left;verticalAlign=bottom;labelBackgroundColor=none;fontSize=12;" parent="WIyWlLk6GJQsqaUBKTNV-1" connectable="0" vertex="1">
          <mxGeometry x="900" y="139.99857142857144" as="geometry" />
        </mxCell>
        <mxCell id="FNTynwL7D7JjEhf0KSwz-37" value="1...*" style="resizable=0;align=left;verticalAlign=bottom;labelBackgroundColor=none;fontSize=12;" parent="WIyWlLk6GJQsqaUBKTNV-1" connectable="0" vertex="1">
          <mxGeometry x="699.9999999999998" y="449.9955555555555" as="geometry">
            <mxPoint x="23" y="130" as="offset" />
          </mxGeometry>
        </mxCell>
        <mxCell id="FNTynwL7D7JjEhf0KSwz-38" value="1...1" style="resizable=0;align=left;verticalAlign=bottom;labelBackgroundColor=none;fontSize=12;" parent="WIyWlLk6GJQsqaUBKTNV-1" connectable="0" vertex="1">
          <mxGeometry x="740" y="499.9985714285715" as="geometry" />
        </mxCell>
        <mxCell id="FNTynwL7D7JjEhf0KSwz-40" value="1...1" style="resizable=0;align=left;verticalAlign=bottom;labelBackgroundColor=none;fontSize=12;" parent="WIyWlLk6GJQsqaUBKTNV-1" connectable="0" vertex="1">
          <mxGeometry x="640" y="769.9985714285715" as="geometry" />
        </mxCell>
        <mxCell id="FNTynwL7D7JjEhf0KSwz-43" value="Members" style="swimlane;fontStyle=0;align=center;verticalAlign=top;childLayout=stackLayout;horizontal=1;startSize=26;horizontalStack=0;resizeParent=1;resizeLast=0;collapsible=1;marginBottom=0;rounded=0;shadow=0;strokeWidth=1;" parent="WIyWlLk6GJQsqaUBKTNV-1" vertex="1">
          <mxGeometry x="770" y="465" width="180" height="230" as="geometry">
            <mxRectangle x="130" y="380" width="160" height="26" as="alternateBounds" />
          </mxGeometry>
        </mxCell>
        <mxCell id="FNTynwL7D7JjEhf0KSwz-44" value="MemberID NUMBER(5) &#xa;PRIMARY KEY" style="text;align=left;verticalAlign=top;spacingLeft=4;spacingRight=4;overflow=hidden;rotatable=0;points=[[0,0.5],[1,0.5]];portConstraint=eastwest;" parent="FNTynwL7D7JjEhf0KSwz-43" vertex="1">
          <mxGeometry y="26" width="180" height="34" as="geometry" />
        </mxCell>
        <mxCell id="FNTynwL7D7JjEhf0KSwz-45" value="MemberName VARCHAR2(30) &#xa;NOT NULL" style="text;align=left;verticalAlign=top;spacingLeft=4;spacingRight=4;overflow=hidden;rotatable=0;points=[[0,0.5],[1,0.5]];portConstraint=eastwest;rounded=0;shadow=0;html=0;" parent="FNTynwL7D7JjEhf0KSwz-43" vertex="1">
          <mxGeometry y="60" width="180" height="40" as="geometry" />
        </mxCell>
        <mxCell id="FNTynwL7D7JjEhf0KSwz-46" value="ContactNumber NUMBER(11) &#xa;NOT NULL" style="text;align=left;verticalAlign=top;spacingLeft=4;spacingRight=4;overflow=hidden;rotatable=0;points=[[0,0.5],[1,0.5]];portConstraint=eastwest;rounded=0;shadow=0;html=0;" parent="FNTynwL7D7JjEhf0KSwz-43" vertex="1">
          <mxGeometry y="100" width="180" height="40" as="geometry" />
        </mxCell>
        <mxCell id="FNTynwL7D7JjEhf0KSwz-47" value="DiscountPercentageNUMBER&#xa;(3)NOT NULL&#xa;" style="text;align=left;verticalAlign=top;spacingLeft=4;spacingRight=4;overflow=hidden;rotatable=0;points=[[0,0.5],[1,0.5]];portConstraint=eastwest;rounded=0;shadow=0;html=0;" parent="FNTynwL7D7JjEhf0KSwz-43" vertex="1">
          <mxGeometry y="140" width="180" height="40" as="geometry" />
        </mxCell>
        <mxCell id="ti9lxB1Ob0P78j63-BCw-45" value="Available VARCHAR2(25) NOT&#xa;NULL" style="text;align=left;verticalAlign=top;spacingLeft=4;spacingRight=4;overflow=hidden;rotatable=0;points=[[0,0.5],[1,0.5]];portConstraint=eastwest;rounded=0;shadow=0;html=0;" parent="FNTynwL7D7JjEhf0KSwz-43" vertex="1">
          <mxGeometry y="180" width="180" height="50" as="geometry" />
        </mxCell>
        <mxCell id="ti9lxB1Ob0P78j63-BCw-31" style="edgeStyle=orthogonalEdgeStyle;rounded=1;orthogonalLoop=1;jettySize=auto;html=1;exitX=1;exitY=0.5;exitDx=0;exitDy=0;entryX=1;entryY=0.5;entryDx=0;entryDy=0;endArrow=none;endFill=0;curved=0;startArrow=classic;startFill=1;" parent="WIyWlLk6GJQsqaUBKTNV-1" source="FNTynwL7D7JjEhf0KSwz-50" target="FNTynwL7D7JjEhf0KSwz-19" edge="1">
          <mxGeometry relative="1" as="geometry">
            <Array as="points">
              <mxPoint x="1570" y="714" />
              <mxPoint x="1570" y="567" />
            </Array>
          </mxGeometry>
        </mxCell>
        <mxCell id="FNTynwL7D7JjEhf0KSwz-49" value="Customer" style="swimlane;fontStyle=0;align=center;verticalAlign=top;childLayout=stackLayout;horizontal=1;startSize=26;horizontalStack=0;resizeParent=1;resizeLast=0;collapsible=1;marginBottom=0;rounded=0;shadow=0;strokeWidth=1;" parent="WIyWlLk6GJQsqaUBKTNV-1" vertex="1">
          <mxGeometry x="1290" y="675" width="250" height="130" as="geometry">
            <mxRectangle x="130" y="380" width="160" height="26" as="alternateBounds" />
          </mxGeometry>
        </mxCell>
        <mxCell id="FNTynwL7D7JjEhf0KSwz-50" value="CustomerID NUMBER(5) PRIMARY KEY" style="text;align=left;verticalAlign=top;spacingLeft=4;spacingRight=4;overflow=hidden;rotatable=0;points=[[0,0.5],[1,0.5]];portConstraint=eastwest;" parent="FNTynwL7D7JjEhf0KSwz-49" vertex="1">
          <mxGeometry y="26" width="250" height="26" as="geometry" />
        </mxCell>
        <mxCell id="FNTynwL7D7JjEhf0KSwz-51" value="CustomerName VARCHAR2(50)NOT NULL" style="text;align=left;verticalAlign=top;spacingLeft=4;spacingRight=4;overflow=hidden;rotatable=0;points=[[0,0.5],[1,0.5]];portConstraint=eastwest;rounded=0;shadow=0;html=0;" parent="FNTynwL7D7JjEhf0KSwz-49" vertex="1">
          <mxGeometry y="52" width="250" height="26" as="geometry" />
        </mxCell>
        <mxCell id="FNTynwL7D7JjEhf0KSwz-52" value="email VARCHAR2(50) NOT NULL" style="text;align=left;verticalAlign=top;spacingLeft=4;spacingRight=4;overflow=hidden;rotatable=0;points=[[0,0.5],[1,0.5]];portConstraint=eastwest;rounded=0;shadow=0;html=0;" parent="FNTynwL7D7JjEhf0KSwz-49" vertex="1">
          <mxGeometry y="78" width="250" height="26" as="geometry" />
        </mxCell>
        <mxCell id="FNTynwL7D7JjEhf0KSwz-53" value="phone NUMBER(5) NOT NULL" style="text;align=left;verticalAlign=top;spacingLeft=4;spacingRight=4;overflow=hidden;rotatable=0;points=[[0,0.5],[1,0.5]];portConstraint=eastwest;rounded=0;shadow=0;html=0;" parent="FNTynwL7D7JjEhf0KSwz-49" vertex="1">
          <mxGeometry y="104" width="250" height="26" as="geometry" />
        </mxCell>
        <mxCell id="ti9lxB1Ob0P78j63-BCw-34" style="edgeStyle=orthogonalEdgeStyle;rounded=1;orthogonalLoop=1;jettySize=auto;html=1;exitX=0;exitY=0.5;exitDx=0;exitDy=0;curved=0;endArrow=classic;endFill=1;entryX=0;entryY=0.5;entryDx=0;entryDy=0;startArrow=none;startFill=0;" parent="WIyWlLk6GJQsqaUBKTNV-1" source="FNTynwL7D7JjEhf0KSwz-59" target="znNQXt6oiHb2Llr82gNU-52" edge="1">
          <mxGeometry relative="1" as="geometry">
            <mxPoint x="1030" y="590" as="targetPoint" />
            <Array as="points">
              <mxPoint x="1060" y="795" />
              <mxPoint x="1060" y="670" />
              <mxPoint x="970" y="670" />
              <mxPoint x="970" y="507" />
            </Array>
          </mxGeometry>
        </mxCell>
        <mxCell id="ti9lxB1Ob0P78j63-BCw-35" style="edgeStyle=orthogonalEdgeStyle;rounded=1;orthogonalLoop=1;jettySize=auto;html=1;curved=0;endArrow=classic;endFill=1;" parent="WIyWlLk6GJQsqaUBKTNV-1" source="FNTynwL7D7JjEhf0KSwz-58" target="zkfFHV4jXpPFQw0GAbJ--14" edge="1">
          <mxGeometry relative="1" as="geometry">
            <Array as="points">
              <mxPoint x="1280" y="740" />
              <mxPoint x="1280" y="660" />
              <mxPoint x="1350" y="660" />
              <mxPoint x="1350" y="497" />
            </Array>
          </mxGeometry>
        </mxCell>
        <mxCell id="FNTynwL7D7JjEhf0KSwz-56" value="Ticket" style="swimlane;fontStyle=0;align=center;verticalAlign=top;childLayout=stackLayout;horizontal=1;startSize=26;horizontalStack=0;resizeParent=1;resizeLast=0;collapsible=1;marginBottom=0;rounded=0;shadow=0;strokeWidth=1;" parent="WIyWlLk6GJQsqaUBKTNV-1" vertex="1">
          <mxGeometry x="1090" y="650" width="160" height="180" as="geometry">
            <mxRectangle x="130" y="380" width="160" height="26" as="alternateBounds" />
          </mxGeometry>
        </mxCell>
        <mxCell id="FNTynwL7D7JjEhf0KSwz-57" value="TicketID NUMBER(5)&#xa;PRIMARY KEY" style="text;align=left;verticalAlign=top;spacingLeft=4;spacingRight=4;overflow=hidden;rotatable=0;points=[[0,0.5],[1,0.5]];portConstraint=eastwest;" parent="FNTynwL7D7JjEhf0KSwz-56" vertex="1">
          <mxGeometry y="26" width="160" height="34" as="geometry" />
        </mxCell>
        <mxCell id="FNTynwL7D7JjEhf0KSwz-58" value="BookingID NUMBER(5)&#xa;REFERENCES Booking&#xa;(BookingID) NOT NULL" style="text;align=left;verticalAlign=top;spacingLeft=4;spacingRight=4;overflow=hidden;rotatable=0;points=[[0,0.5],[1,0.5]];portConstraint=eastwest;rounded=0;shadow=0;html=0;" parent="FNTynwL7D7JjEhf0KSwz-56" vertex="1">
          <mxGeometry y="60" width="160" height="60" as="geometry" />
        </mxCell>
        <mxCell id="FNTynwL7D7JjEhf0KSwz-59" value="SeatID NUMBER(5)&#xa;REFERENCES Seat(SeaID)&#xa;NOT NULL" style="text;align=left;verticalAlign=top;spacingLeft=4;spacingRight=4;overflow=hidden;rotatable=0;points=[[0,0.5],[1,0.5]];portConstraint=eastwest;rounded=0;shadow=0;html=0;" parent="FNTynwL7D7JjEhf0KSwz-56" vertex="1">
          <mxGeometry y="120" width="160" height="50" as="geometry" />
        </mxCell>
        <mxCell id="FNTynwL7D7JjEhf0KSwz-67" value="1...1" style="resizable=0;align=left;verticalAlign=bottom;labelBackgroundColor=none;fontSize=12;" parent="WIyWlLk6GJQsqaUBKTNV-1" connectable="0" vertex="1">
          <mxGeometry x="1540" y="729.9985714285715" as="geometry" />
        </mxCell>
        <mxCell id="FNTynwL7D7JjEhf0KSwz-97" value="1...*" style="resizable=0;align=left;verticalAlign=bottom;labelBackgroundColor=none;fontSize=12;" parent="WIyWlLk6GJQsqaUBKTNV-1" connectable="0" vertex="1">
          <mxGeometry x="810" y="409.99857142857144" as="geometry" />
        </mxCell>
        <mxCell id="FNTynwL7D7JjEhf0KSwz-98" value="1...*" style="resizable=0;align=left;verticalAlign=bottom;labelBackgroundColor=none;fontSize=12;" parent="WIyWlLk6GJQsqaUBKTNV-1" connectable="0" vertex="1">
          <mxGeometry x="1040" y="439.99857142857144" as="geometry" />
        </mxCell>
        <mxCell id="FNTynwL7D7JjEhf0KSwz-102" value="DutyRequired" style="swimlane;fontStyle=0;align=center;verticalAlign=top;childLayout=stackLayout;horizontal=1;startSize=26;horizontalStack=0;resizeParent=1;resizeLast=0;collapsible=1;marginBottom=0;rounded=0;shadow=0;strokeWidth=1;" parent="WIyWlLk6GJQsqaUBKTNV-1" vertex="1">
          <mxGeometry x="400" y="610" width="300" height="130" as="geometry">
            <mxRectangle x="130" y="380" width="160" height="26" as="alternateBounds" />
          </mxGeometry>
        </mxCell>
        <mxCell id="FNTynwL7D7JjEhf0KSwz-103" value="DutyRequiredID NUMBER(5) PRIMARY KEY" style="text;align=left;verticalAlign=top;spacingLeft=4;spacingRight=4;overflow=hidden;rotatable=0;points=[[0,0.5],[1,0.5]];portConstraint=eastwest;" parent="FNTynwL7D7JjEhf0KSwz-102" vertex="1">
          <mxGeometry y="26" width="300" height="26" as="geometry" />
        </mxCell>
        <mxCell id="FNTynwL7D7JjEhf0KSwz-104" value="ProductionTypeID NUMBER(5) REFERENCES&#xa;ProductionType(ProductionTypeID) NOT NULL" style="text;align=left;verticalAlign=top;spacingLeft=4;spacingRight=4;overflow=hidden;rotatable=0;points=[[0,0.5],[1,0.5]];portConstraint=eastwest;rounded=0;shadow=0;html=0;" parent="FNTynwL7D7JjEhf0KSwz-102" vertex="1">
          <mxGeometry y="52" width="300" height="38" as="geometry" />
        </mxCell>
        <mxCell id="FNTynwL7D7JjEhf0KSwz-121" value="DutyID NUMBER(5) REFERENCES Duties(DutyID)&#xa;NOT NULL" style="text;align=left;verticalAlign=top;spacingLeft=4;spacingRight=4;overflow=hidden;rotatable=0;points=[[0,0.5],[1,0.5]];portConstraint=eastwest;rounded=0;shadow=0;html=0;" parent="FNTynwL7D7JjEhf0KSwz-102" vertex="1">
          <mxGeometry y="90" width="300" height="40" as="geometry" />
        </mxCell>
        <mxCell id="ti9lxB1Ob0P78j63-BCw-38" style="edgeStyle=orthogonalEdgeStyle;rounded=1;orthogonalLoop=1;jettySize=auto;html=1;exitX=0;exitY=0.5;exitDx=0;exitDy=0;endArrow=classic;endFill=1;curved=0;entryX=1;entryY=0.923;entryDx=0;entryDy=0;entryPerimeter=0;" parent="WIyWlLk6GJQsqaUBKTNV-1" source="FNTynwL7D7JjEhf0KSwz-113" target="zkfFHV4jXpPFQw0GAbJ--18" edge="1">
          <mxGeometry relative="1" as="geometry">
            <Array as="points">
              <mxPoint x="820" y="393" />
              <mxPoint x="820" y="290" />
              <mxPoint x="850" y="290" />
              <mxPoint x="850" y="120" />
            </Array>
          </mxGeometry>
        </mxCell>
        <mxCell id="FNTynwL7D7JjEhf0KSwz-111" value="SeatAllocation" style="swimlane;fontStyle=0;align=center;verticalAlign=top;childLayout=stackLayout;horizontal=1;startSize=26;horizontalStack=0;resizeParent=1;resizeLast=0;collapsible=1;marginBottom=0;rounded=0;shadow=0;strokeWidth=1;" parent="WIyWlLk6GJQsqaUBKTNV-1" vertex="1">
          <mxGeometry x="840" y="308" width="200" height="152" as="geometry">
            <mxRectangle x="130" y="380" width="160" height="26" as="alternateBounds" />
          </mxGeometry>
        </mxCell>
        <mxCell id="FNTynwL7D7JjEhf0KSwz-112" value="SeatAllocationID NUMBER(5)&#xa;PRIMARY KEY" style="text;align=left;verticalAlign=top;spacingLeft=4;spacingRight=4;overflow=hidden;rotatable=0;points=[[0,0.5],[1,0.5]];portConstraint=eastwest;" parent="FNTynwL7D7JjEhf0KSwz-111" vertex="1">
          <mxGeometry y="26" width="200" height="34" as="geometry" />
        </mxCell>
        <mxCell id="FNTynwL7D7JjEhf0KSwz-113" value="ProductionID NUMBER(5)&#xa;REFERENCES Production&#xa;(ProductionID) NOT NULL" style="text;align=left;verticalAlign=top;spacingLeft=4;spacingRight=4;overflow=hidden;rotatable=0;points=[[0,0.5],[1,0.5]];portConstraint=eastwest;rounded=0;shadow=0;html=0;" parent="FNTynwL7D7JjEhf0KSwz-111" vertex="1">
          <mxGeometry y="60" width="200" height="50" as="geometry" />
        </mxCell>
        <mxCell id="FNTynwL7D7JjEhf0KSwz-118" value="SeatID NUMBER(5) REFERENCES&#xa;Seat(SeatID) NOT ULL" style="text;align=left;verticalAlign=top;spacingLeft=4;spacingRight=4;overflow=hidden;rotatable=0;points=[[0,0.5],[1,0.5]];portConstraint=eastwest;" parent="FNTynwL7D7JjEhf0KSwz-111" vertex="1">
          <mxGeometry y="110" width="200" height="40" as="geometry" />
        </mxCell>
        <mxCell id="FNTynwL7D7JjEhf0KSwz-119" value="1...1" style="resizable=0;align=left;verticalAlign=bottom;labelBackgroundColor=none;fontSize=12;" parent="WIyWlLk6GJQsqaUBKTNV-1" connectable="0" vertex="1">
          <mxGeometry x="826.9999999999998" y="139.99555555555554" as="geometry" />
        </mxCell>
        <mxCell id="FNTynwL7D7JjEhf0KSwz-120" value="1...1" style="resizable=0;align=left;verticalAlign=bottom;labelBackgroundColor=none;fontSize=12;" parent="WIyWlLk6GJQsqaUBKTNV-1" connectable="0" vertex="1">
          <mxGeometry x="1089.9999999999998" y="459.99555555555554" as="geometry" />
        </mxCell>
        <mxCell id="FNTynwL7D7JjEhf0KSwz-131" value="PaymentStatusReport" style="swimlane;fontStyle=0;align=center;verticalAlign=top;childLayout=stackLayout;horizontal=1;startSize=26;horizontalStack=0;resizeParent=1;resizeLast=0;collapsible=1;marginBottom=0;rounded=0;shadow=0;strokeWidth=1;" parent="WIyWlLk6GJQsqaUBKTNV-1" vertex="1">
          <mxGeometry x="1090" y="243" width="230" height="180" as="geometry">
            <mxRectangle x="130" y="380" width="160" height="26" as="alternateBounds" />
          </mxGeometry>
        </mxCell>
        <mxCell id="FNTynwL7D7JjEhf0KSwz-132" value="PaymentReportID NUMBER(5)&#xa;PRIMARY KEY" style="text;align=left;verticalAlign=top;spacingLeft=4;spacingRight=4;overflow=hidden;rotatable=0;points=[[0,0.5],[1,0.5]];portConstraint=eastwest;" parent="FNTynwL7D7JjEhf0KSwz-131" vertex="1">
          <mxGeometry y="26" width="230" height="34" as="geometry" />
        </mxCell>
        <mxCell id="FNTynwL7D7JjEhf0KSwz-133" value="BookingID NUMBER(5) REFERENCES&#xa;Booking(BookingID)NOT NULL" style="text;align=left;verticalAlign=top;spacingLeft=4;spacingRight=4;overflow=hidden;rotatable=0;points=[[0,0.5],[1,0.5]];portConstraint=eastwest;rounded=0;shadow=0;html=0;" parent="FNTynwL7D7JjEhf0KSwz-131" vertex="1">
          <mxGeometry y="60" width="230" height="40" as="geometry" />
        </mxCell>
        <mxCell id="FNTynwL7D7JjEhf0KSwz-135" value="PaymentStatusVARCHAR(6)NOT NULL" style="text;align=left;verticalAlign=top;spacingLeft=4;spacingRight=4;overflow=hidden;rotatable=0;points=[[0,0.5],[1,0.5]];portConstraint=eastwest;rounded=0;shadow=0;html=0;" parent="FNTynwL7D7JjEhf0KSwz-131" vertex="1">
          <mxGeometry y="100" width="230" height="26" as="geometry" />
        </mxCell>
        <mxCell id="lSGjrrR5sQ7p-X3xTxe8-11" value="PerformanceIDNUMBER(5)&#xa;REFERENCES Performances&#xa;(PerformanceID) NOT NULL" style="text;align=left;verticalAlign=top;spacingLeft=4;spacingRight=4;overflow=hidden;rotatable=0;points=[[0,0.5],[1,0.5]];portConstraint=eastwest;rounded=0;shadow=0;html=0;" parent="FNTynwL7D7JjEhf0KSwz-131" vertex="1">
          <mxGeometry y="126" width="230" height="54" as="geometry" />
        </mxCell>
        <mxCell id="FNTynwL7D7JjEhf0KSwz-137" style="edgeStyle=orthogonalEdgeStyle;rounded=1;orthogonalLoop=1;jettySize=auto;html=1;exitX=1;exitY=0.5;exitDx=0;exitDy=0;curved=0;endArrow=none;endFill=0;startArrow=classic;startFill=1;" parent="WIyWlLk6GJQsqaUBKTNV-1" source="znNQXt6oiHb2Llr82gNU-2" target="lSGjrrR5sQ7p-X3xTxe8-11" edge="1">
          <mxGeometry relative="1" as="geometry">
            <Array as="points">
              <mxPoint x="1350" y="123" />
              <mxPoint x="1350" y="380" />
            </Array>
          </mxGeometry>
        </mxCell>
        <mxCell id="FNTynwL7D7JjEhf0KSwz-141" value="" style="resizable=0;align=left;verticalAlign=bottom;labelBackgroundColor=none;fontSize=12;" parent="WIyWlLk6GJQsqaUBKTNV-1" connectable="0" vertex="1">
          <mxGeometry x="840" y="609.9985714285715" as="geometry">
            <mxPoint x="211" y="185" as="offset" />
          </mxGeometry>
        </mxCell>
        <mxCell id="FNTynwL7D7JjEhf0KSwz-143" value="1...*" style="resizable=0;align=left;verticalAlign=bottom;labelBackgroundColor=none;fontSize=12;" parent="WIyWlLk6GJQsqaUBKTNV-1" connectable="0" vertex="1">
          <mxGeometry x="369.9999999999998" y="699.9955555555555" as="geometry" />
        </mxCell>
        <mxCell id="FNTynwL7D7JjEhf0KSwz-144" value="1...*" style="resizable=0;align=left;verticalAlign=bottom;labelBackgroundColor=none;fontSize=12;" parent="WIyWlLk6GJQsqaUBKTNV-1" connectable="0" vertex="1">
          <mxGeometry x="369.9999999999998" y="739.9955555555555" as="geometry" />
        </mxCell>
        <mxCell id="FNTynwL7D7JjEhf0KSwz-145" value="1...1" style="resizable=0;align=left;verticalAlign=bottom;labelBackgroundColor=none;fontSize=12;" parent="WIyWlLk6GJQsqaUBKTNV-1" connectable="0" vertex="1">
          <mxGeometry x="540" y="229.99857142857144" as="geometry" />
        </mxCell>
        <mxCell id="FNTynwL7D7JjEhf0KSwz-146" value="1...1" style="resizable=0;align=left;verticalAlign=bottom;labelBackgroundColor=none;fontSize=12;" parent="WIyWlLk6GJQsqaUBKTNV-1" connectable="0" vertex="1">
          <mxGeometry x="930" y="599.9985714285715" as="geometry">
            <mxPoint x="-512" y="179" as="offset" />
          </mxGeometry>
        </mxCell>
        <mxCell id="FNTynwL7D7JjEhf0KSwz-147" value="1...1" style="resizable=0;align=left;verticalAlign=bottom;labelBackgroundColor=none;fontSize=12;" parent="WIyWlLk6GJQsqaUBKTNV-1" connectable="0" vertex="1">
          <mxGeometry x="1090" y="119.99857142857144" as="geometry" />
        </mxCell>
        <mxCell id="FNTynwL7D7JjEhf0KSwz-148" value="1...1" style="resizable=0;align=left;verticalAlign=bottom;labelBackgroundColor=none;fontSize=12;" parent="WIyWlLk6GJQsqaUBKTNV-1" connectable="0" vertex="1">
          <mxGeometry x="1320" y="394.99857142857144" as="geometry" />
        </mxCell>
        <mxCell id="FNTynwL7D7JjEhf0KSwz-149" value="1...*" style="resizable=0;align=left;verticalAlign=bottom;labelBackgroundColor=none;fontSize=12;" parent="WIyWlLk6GJQsqaUBKTNV-1" connectable="0" vertex="1">
          <mxGeometry x="1320" y="479.99857142857144" as="geometry" />
        </mxCell>
        <mxCell id="FNTynwL7D7JjEhf0KSwz-150" value="1...1" style="resizable=0;align=left;verticalAlign=bottom;labelBackgroundColor=none;fontSize=12;" parent="WIyWlLk6GJQsqaUBKTNV-1" connectable="0" vertex="1">
          <mxGeometry x="1150" y="279.99857142857144" as="geometry">
            <mxPoint x="167" y="47" as="offset" />
          </mxGeometry>
        </mxCell>
        <mxCell id="FNTynwL7D7JjEhf0KSwz-153" value="1...*" style="resizable=0;align=left;verticalAlign=bottom;labelBackgroundColor=none;fontSize=12;" parent="WIyWlLk6GJQsqaUBKTNV-1" connectable="0" vertex="1">
          <mxGeometry x="1290" y="362.49857142857144" as="geometry">
            <mxPoint x="28" y="204" as="offset" />
          </mxGeometry>
        </mxCell>
        <mxCell id="FNTynwL7D7JjEhf0KSwz-156" value="0...*" style="resizable=0;align=left;verticalAlign=bottom;labelBackgroundColor=none;fontSize=12;" parent="WIyWlLk6GJQsqaUBKTNV-1" connectable="0" vertex="1">
          <mxGeometry x="900" y="634.9985714285715" as="geometry">
            <mxPoint x="163" y="157" as="offset" />
          </mxGeometry>
        </mxCell>
        <mxCell id="FNTynwL7D7JjEhf0KSwz-157" value="1...1" style="resizable=0;align=left;verticalAlign=bottom;labelBackgroundColor=none;fontSize=12;" parent="WIyWlLk6GJQsqaUBKTNV-1" connectable="0" vertex="1">
          <mxGeometry x="949.9999999999998" y="499.9955555555555" as="geometry" />
        </mxCell>
        <mxCell id="FNTynwL7D7JjEhf0KSwz-158" value="1...*" style="resizable=0;align=left;verticalAlign=bottom;labelBackgroundColor=none;fontSize=12;" parent="WIyWlLk6GJQsqaUBKTNV-1" connectable="0" vertex="1">
          <mxGeometry x="1250" y="739.9985714285715" as="geometry" />
        </mxCell>
        <mxCell id="FNTynwL7D7JjEhf0KSwz-159" value="1...1" style="resizable=0;align=left;verticalAlign=bottom;labelBackgroundColor=none;fontSize=12;" parent="WIyWlLk6GJQsqaUBKTNV-1" connectable="0" vertex="1">
          <mxGeometry x="1319.9999999999998" y="519.9955555555555" as="geometry" />
        </mxCell>
        <mxCell id="ti9lxB1Ob0P78j63-BCw-58" style="edgeStyle=orthogonalEdgeStyle;rounded=1;orthogonalLoop=1;jettySize=auto;html=1;exitX=1;exitY=0.5;exitDx=0;exitDy=0;entryX=0;entryY=0.769;entryDx=0;entryDy=0;curved=0;endArrow=classic;endFill=1;entryPerimeter=0;" parent="WIyWlLk6GJQsqaUBKTNV-1" source="ti9lxB1Ob0P78j63-BCw-59" target="zkfFHV4jXpPFQw0GAbJ--18" edge="1">
          <mxGeometry relative="1" as="geometry">
            <Array as="points">
              <mxPoint x="380" y="470" />
              <mxPoint x="420" y="470" />
              <mxPoint x="420" y="260" />
              <mxPoint x="520" y="260" />
              <mxPoint x="520" y="116" />
            </Array>
          </mxGeometry>
        </mxCell>
        <mxCell id="ti9lxB1Ob0P78j63-BCw-0" value="Price" style="swimlane;fontStyle=0;align=center;verticalAlign=top;childLayout=stackLayout;horizontal=1;startSize=26;horizontalStack=0;resizeParent=1;resizeLast=0;collapsible=1;marginBottom=0;rounded=0;shadow=0;strokeWidth=1;" parent="WIyWlLk6GJQsqaUBKTNV-1" vertex="1">
          <mxGeometry x="120" y="335" width="260" height="160" as="geometry">
            <mxRectangle x="130" y="380" width="160" height="26" as="alternateBounds" />
          </mxGeometry>
        </mxCell>
        <mxCell id="ti9lxB1Ob0P78j63-BCw-1" value="PriceID NUMBER(5) PRIMARY KEY" style="text;align=left;verticalAlign=top;spacingLeft=4;spacingRight=4;overflow=hidden;rotatable=0;points=[[0,0.5],[1,0.5]];portConstraint=eastwest;" parent="ti9lxB1Ob0P78j63-BCw-0" vertex="1">
          <mxGeometry y="26" width="260" height="26" as="geometry" />
        </mxCell>
        <mxCell id="ti9lxB1Ob0P78j63-BCw-2" value="BlockID NUMBER(5) REFERENCES&#xa;SeatBlock(BlockID) NOT NULL" style="text;align=left;verticalAlign=top;spacingLeft=4;spacingRight=4;overflow=hidden;rotatable=0;points=[[0,0.5],[1,0.5]];portConstraint=eastwest;rounded=0;shadow=0;html=0;" parent="ti9lxB1Ob0P78j63-BCw-0" vertex="1">
          <mxGeometry y="52" width="260" height="38" as="geometry" />
        </mxCell>
        <mxCell id="ti9lxB1Ob0P78j63-BCw-3" value="Price NUMBER(10) NOT NULL" style="text;align=left;verticalAlign=top;spacingLeft=4;spacingRight=4;overflow=hidden;rotatable=0;points=[[0,0.5],[1,0.5]];portConstraint=eastwest;rounded=0;shadow=0;html=0;" parent="ti9lxB1Ob0P78j63-BCw-0" vertex="1">
          <mxGeometry y="90" width="260" height="26" as="geometry" />
        </mxCell>
        <mxCell id="ti9lxB1Ob0P78j63-BCw-59" value="ProductionID NUMBER(5) REFERENCES&#xa;Production(ProductionID) NOT NULL" style="text;align=left;verticalAlign=top;spacingLeft=4;spacingRight=4;overflow=hidden;rotatable=0;points=[[0,0.5],[1,0.5]];portConstraint=eastwest;" parent="ti9lxB1Ob0P78j63-BCw-0" vertex="1">
          <mxGeometry y="116" width="260" height="44" as="geometry" />
        </mxCell>
        <mxCell id="ti9lxB1Ob0P78j63-BCw-9" style="edgeStyle=orthogonalEdgeStyle;rounded=1;orthogonalLoop=1;jettySize=auto;html=1;exitX=0;exitY=0.5;exitDx=0;exitDy=0;entryX=0;entryY=0.5;entryDx=0;entryDy=0;curved=0;endArrow=none;endFill=0;startArrow=classic;startFill=1;" parent="WIyWlLk6GJQsqaUBKTNV-1" source="ti9lxB1Ob0P78j63-BCw-5" target="ti9lxB1Ob0P78j63-BCw-2" edge="1">
          <mxGeometry relative="1" as="geometry" />
        </mxCell>
        <mxCell id="ti9lxB1Ob0P78j63-BCw-4" value="SeatBlock" style="swimlane;fontStyle=0;align=center;verticalAlign=top;childLayout=stackLayout;horizontal=1;startSize=26;horizontalStack=0;resizeParent=1;resizeLast=0;collapsible=1;marginBottom=0;rounded=0;shadow=0;strokeWidth=1;" parent="WIyWlLk6GJQsqaUBKTNV-1" vertex="1">
          <mxGeometry x="120" y="520" width="220" height="78" as="geometry">
            <mxRectangle x="130" y="380" width="160" height="26" as="alternateBounds" />
          </mxGeometry>
        </mxCell>
        <mxCell id="ti9lxB1Ob0P78j63-BCw-5" value="BlockID NUMBER(5) PRIMARY KEY" style="text;align=left;verticalAlign=top;spacingLeft=4;spacingRight=4;overflow=hidden;rotatable=0;points=[[0,0.5],[1,0.5]];portConstraint=eastwest;" parent="ti9lxB1Ob0P78j63-BCw-4" vertex="1">
          <mxGeometry y="26" width="220" height="26" as="geometry" />
        </mxCell>
        <mxCell id="ti9lxB1Ob0P78j63-BCw-6" value="BlockName VARCHAR(50) NOT NULL" style="text;align=left;verticalAlign=top;spacingLeft=4;spacingRight=4;overflow=hidden;rotatable=0;points=[[0,0.5],[1,0.5]];portConstraint=eastwest;rounded=0;shadow=0;html=0;" parent="ti9lxB1Ob0P78j63-BCw-4" vertex="1">
          <mxGeometry y="52" width="220" height="26" as="geometry" />
        </mxCell>
        <mxCell id="FNTynwL7D7JjEhf0KSwz-39" value="1...1" style="resizable=0;align=left;verticalAlign=bottom;labelBackgroundColor=none;fontSize=12;" parent="WIyWlLk6GJQsqaUBKTNV-1" connectable="0" vertex="1">
          <mxGeometry x="414" y="530" width="160" as="geometry" />
        </mxCell>
        <mxCell id="ti9lxB1Ob0P78j63-BCw-10" value="1...1" style="resizable=0;align=left;verticalAlign=bottom;labelBackgroundColor=none;fontSize=12;rotation=0;" parent="WIyWlLk6GJQsqaUBKTNV-1" connectable="0" vertex="1">
          <mxGeometry x="540" y="139.9985714285715" as="geometry" />
        </mxCell>
        <mxCell id="ti9lxB1Ob0P78j63-BCw-11" value="1...*" style="resizable=0;align=left;verticalAlign=bottom;labelBackgroundColor=none;fontSize=12;" parent="WIyWlLk6GJQsqaUBKTNV-1" connectable="0" vertex="1">
          <mxGeometry x="379.9999999999998" y="463.9955555555555" as="geometry" />
        </mxCell>
        <mxCell id="ti9lxB1Ob0P78j63-BCw-25" style="edgeStyle=orthogonalEdgeStyle;rounded=1;orthogonalLoop=1;jettySize=auto;html=1;entryX=0;entryY=0.5;entryDx=0;entryDy=0;curved=0;endArrow=none;endFill=0;exitX=0.25;exitY=0;exitDx=0;exitDy=0;startArrow=classic;startFill=1;" parent="WIyWlLk6GJQsqaUBKTNV-1" source="ti9lxB1Ob0P78j63-BCw-21" target="ti9lxB1Ob0P78j63-BCw-30" edge="1">
          <mxGeometry relative="1" as="geometry">
            <mxPoint x="534" y="440" as="sourcePoint" />
          </mxGeometry>
        </mxCell>
        <mxCell id="ti9lxB1Ob0P78j63-BCw-21" value="ProductionType" style="swimlane;fontStyle=0;align=center;verticalAlign=top;childLayout=stackLayout;horizontal=1;startSize=26;horizontalStack=0;resizeParent=1;resizeLast=0;collapsible=1;marginBottom=0;rounded=0;shadow=0;strokeWidth=1;" parent="WIyWlLk6GJQsqaUBKTNV-1" vertex="1">
          <mxGeometry x="505" y="300" width="270" height="104" as="geometry">
            <mxRectangle x="130" y="380" width="160" height="26" as="alternateBounds" />
          </mxGeometry>
        </mxCell>
        <mxCell id="xRv7cFnwkmTu5II-aoX4-2" value="ProductionTypeID NUMBER(5) PRIMARY KEY" style="text;align=left;verticalAlign=top;spacingLeft=4;spacingRight=4;overflow=hidden;rotatable=0;points=[[0,0.5],[1,0.5]];portConstraint=eastwest;" parent="ti9lxB1Ob0P78j63-BCw-21" vertex="1">
          <mxGeometry y="26" width="270" height="26" as="geometry" />
        </mxCell>
        <mxCell id="ti9lxB1Ob0P78j63-BCw-22" value="ProductionTypeID NUMBER(5) PRIMARY KEY" style="text;align=left;verticalAlign=top;spacingLeft=4;spacingRight=4;overflow=hidden;rotatable=0;points=[[0,0.5],[1,0.5]];portConstraint=eastwest;" parent="ti9lxB1Ob0P78j63-BCw-21" vertex="1">
          <mxGeometry y="52" width="270" height="26" as="geometry" />
        </mxCell>
        <mxCell id="ti9lxB1Ob0P78j63-BCw-23" value="ProductionName VARCHAR(50) NOT NULL" style="text;align=left;verticalAlign=top;spacingLeft=4;spacingRight=4;overflow=hidden;rotatable=0;points=[[0,0.5],[1,0.5]];portConstraint=eastwest;rounded=0;shadow=0;html=0;" parent="ti9lxB1Ob0P78j63-BCw-21" vertex="1">
          <mxGeometry y="78" width="270" height="26" as="geometry" />
        </mxCell>
        <mxCell id="ti9lxB1Ob0P78j63-BCw-28" value="1...1" style="resizable=0;align=left;verticalAlign=bottom;labelBackgroundColor=none;fontSize=12;rotation=0;" parent="WIyWlLk6GJQsqaUBKTNV-1" connectable="0" vertex="1">
          <mxGeometry x="90" y="394.9985714285715" as="geometry" />
        </mxCell>
        <mxCell id="ti9lxB1Ob0P78j63-BCw-29" value="1...1" style="resizable=0;align=left;verticalAlign=bottom;labelBackgroundColor=none;fontSize=12;rotation=0;" parent="WIyWlLk6GJQsqaUBKTNV-1" connectable="0" vertex="1">
          <mxGeometry x="80" y="579.9985714285715" as="geometry" />
        </mxCell>
        <mxCell id="ti9lxB1Ob0P78j63-BCw-36" style="edgeStyle=orthogonalEdgeStyle;rounded=1;orthogonalLoop=1;jettySize=auto;html=1;exitX=0.689;exitY=-0.006;exitDx=0;exitDy=0;entryX=1;entryY=0.5;entryDx=0;entryDy=0;curved=0;endArrow=none;endFill=0;startArrow=classic;startFill=1;exitPerimeter=0;" parent="WIyWlLk6GJQsqaUBKTNV-1" source="znNQXt6oiHb2Llr82gNU-51" target="FNTynwL7D7JjEhf0KSwz-118" edge="1">
          <mxGeometry relative="1" as="geometry" />
        </mxCell>
        <mxCell id="ti9lxB1Ob0P78j63-BCw-40" style="edgeStyle=orthogonalEdgeStyle;rounded=1;orthogonalLoop=1;jettySize=auto;html=1;curved=0;endArrow=classic;endFill=1;entryX=0;entryY=0.5;entryDx=0;entryDy=0;" parent="WIyWlLk6GJQsqaUBKTNV-1" source="FNTynwL7D7JjEhf0KSwz-28" target="znNQXt6oiHb2Llr82gNU-2" edge="1">
          <mxGeometry relative="1" as="geometry">
            <mxPoint x="890" y="240" as="targetPoint" />
            <Array as="points">
              <mxPoint x="740" y="481" />
              <mxPoint x="740" y="460" />
              <mxPoint x="800" y="460" />
              <mxPoint x="800" y="300" />
              <mxPoint x="890" y="300" />
              <mxPoint x="890" y="123" />
            </Array>
          </mxGeometry>
        </mxCell>
        <mxCell id="ti9lxB1Ob0P78j63-BCw-52" style="edgeStyle=orthogonalEdgeStyle;rounded=1;orthogonalLoop=1;jettySize=auto;html=1;entryX=0;entryY=0.5;entryDx=0;entryDy=0;curved=0;endArrow=classic;endFill=1;" parent="WIyWlLk6GJQsqaUBKTNV-1" source="ti9lxB1Ob0P78j63-BCw-49" target="FNTynwL7D7JjEhf0KSwz-44" edge="1">
          <mxGeometry relative="1" as="geometry">
            <Array as="points">
              <mxPoint x="1050" y="820" />
              <mxPoint x="1050" y="700" />
              <mxPoint x="750" y="700" />
              <mxPoint x="750" y="508" />
            </Array>
          </mxGeometry>
        </mxCell>
        <mxCell id="ti9lxB1Ob0P78j63-BCw-46" value="MemberDutyPrefference" style="swimlane;fontStyle=0;align=center;verticalAlign=top;childLayout=stackLayout;horizontal=1;startSize=26;horizontalStack=0;resizeParent=1;resizeLast=0;collapsible=1;marginBottom=0;rounded=0;shadow=0;strokeWidth=1;" parent="WIyWlLk6GJQsqaUBKTNV-1" vertex="1">
          <mxGeometry x="747" y="710" width="290" height="130" as="geometry">
            <mxRectangle x="130" y="380" width="160" height="26" as="alternateBounds" />
          </mxGeometry>
        </mxCell>
        <mxCell id="ti9lxB1Ob0P78j63-BCw-47" value="PreferenceID NUMBER(5) PRIMARY KEY" style="text;align=left;verticalAlign=top;spacingLeft=4;spacingRight=4;overflow=hidden;rotatable=0;points=[[0,0.5],[1,0.5]];portConstraint=eastwest;" parent="ti9lxB1Ob0P78j63-BCw-46" vertex="1">
          <mxGeometry y="26" width="290" height="26" as="geometry" />
        </mxCell>
        <mxCell id="ti9lxB1Ob0P78j63-BCw-48" value="DutyID NUMBER(5) REFERENCES Duties(DutyID)&#xa;NOT NULL" style="text;align=left;verticalAlign=top;spacingLeft=4;spacingRight=4;overflow=hidden;rotatable=0;points=[[0,0.5],[1,0.5]];portConstraint=eastwest;rounded=0;shadow=0;html=0;" parent="ti9lxB1Ob0P78j63-BCw-46" vertex="1">
          <mxGeometry y="52" width="290" height="38" as="geometry" />
        </mxCell>
        <mxCell id="ti9lxB1Ob0P78j63-BCw-49" value="MemberID NUMBER(5) REFERENCES Members&#xa;(MemberID) NOT NULL" style="text;align=left;verticalAlign=top;spacingLeft=4;spacingRight=4;overflow=hidden;rotatable=0;points=[[0,0.5],[1,0.5]];portConstraint=eastwest;rounded=0;shadow=0;html=0;" parent="ti9lxB1Ob0P78j63-BCw-46" vertex="1">
          <mxGeometry y="90" width="290" height="40" as="geometry" />
        </mxCell>
        <mxCell id="ti9lxB1Ob0P78j63-BCw-53" style="edgeStyle=orthogonalEdgeStyle;rounded=1;orthogonalLoop=1;jettySize=auto;html=1;exitX=0;exitY=0.5;exitDx=0;exitDy=0;entryX=1;entryY=0.5;entryDx=0;entryDy=0;curved=0;endArrow=classic;endFill=1;" parent="WIyWlLk6GJQsqaUBKTNV-1" source="ti9lxB1Ob0P78j63-BCw-48" target="FNTynwL7D7JjEhf0KSwz-1" edge="1">
          <mxGeometry relative="1" as="geometry" />
        </mxCell>
        <mxCell id="ti9lxB1Ob0P78j63-BCw-54" value="1...1" style="resizable=0;align=left;verticalAlign=bottom;labelBackgroundColor=none;fontSize=12;" parent="WIyWlLk6GJQsqaUBKTNV-1" connectable="0" vertex="1">
          <mxGeometry x="747" y="530" width="160" as="geometry" />
        </mxCell>
        <mxCell id="ti9lxB1Ob0P78j63-BCw-55" value="1...*" style="resizable=0;align=left;verticalAlign=bottom;labelBackgroundColor=none;fontSize=12;" parent="WIyWlLk6GJQsqaUBKTNV-1" connectable="0" vertex="1">
          <mxGeometry x="1009.9999999999998" y="709.9955555555555" as="geometry">
            <mxPoint x="23" y="130" as="offset" />
          </mxGeometry>
        </mxCell>
        <mxCell id="ti9lxB1Ob0P78j63-BCw-56" value="1...1" style="resizable=0;align=left;verticalAlign=bottom;labelBackgroundColor=none;fontSize=12;" parent="WIyWlLk6GJQsqaUBKTNV-1" connectable="0" vertex="1">
          <mxGeometry x="640" y="800" width="160" as="geometry" />
        </mxCell>
        <mxCell id="ti9lxB1Ob0P78j63-BCw-57" value="1...*" style="resizable=0;align=left;verticalAlign=bottom;labelBackgroundColor=none;fontSize=12;" parent="WIyWlLk6GJQsqaUBKTNV-1" connectable="0" vertex="1">
          <mxGeometry x="699.9999999999998" y="669.9955555555555" as="geometry">
            <mxPoint x="23" y="130" as="offset" />
          </mxGeometry>
        </mxCell>
        <mxCell id="lSGjrrR5sQ7p-X3xTxe8-1" value="" style="endArrow=classic;html=1;rounded=1;exitX=1;exitY=0.5;exitDx=0;exitDy=0;entryX=0.019;entryY=0.269;entryDx=0;entryDy=0;edgeStyle=orthogonalEdgeStyle;curved=0;endFill=1;entryPerimeter=0;" parent="WIyWlLk6GJQsqaUBKTNV-1" source="ti9lxB1Ob0P78j63-BCw-27" target="zkfFHV4jXpPFQw0GAbJ--18" edge="1">
          <mxGeometry width="50" height="50" relative="1" as="geometry">
            <mxPoint x="470" y="210" as="sourcePoint" />
            <mxPoint x="750" y="380" as="targetPoint" />
          </mxGeometry>
        </mxCell>
        <mxCell id="lSGjrrR5sQ7p-X3xTxe8-8" value="1...1" style="resizable=0;align=left;verticalAlign=bottom;labelBackgroundColor=none;fontSize=12;rotation=0;" parent="WIyWlLk6GJQsqaUBKTNV-1" connectable="0" vertex="1">
          <mxGeometry x="470" y="334.9985714285715" as="geometry" />
        </mxCell>
        <mxCell id="lSGjrrR5sQ7p-X3xTxe8-9" value="1...1" style="resizable=0;align=left;verticalAlign=bottom;labelBackgroundColor=none;fontSize=12;rotation=0;" parent="WIyWlLk6GJQsqaUBKTNV-1" connectable="0" vertex="1">
          <mxGeometry x="540" y="299.9985714285715" as="geometry" />
        </mxCell>
        <mxCell id="xRv7cFnwkmTu5II-aoX4-1" style="edgeStyle=orthogonalEdgeStyle;rounded=1;orthogonalLoop=1;jettySize=auto;html=1;exitX=1;exitY=0.5;exitDx=0;exitDy=0;entryX=1;entryY=0.294;entryDx=0;entryDy=0;entryPerimeter=0;curved=0;" parent="WIyWlLk6GJQsqaUBKTNV-1" source="FNTynwL7D7JjEhf0KSwz-133" target="zkfFHV4jXpPFQw0GAbJ--14" edge="1">
          <mxGeometry relative="1" as="geometry" />
        </mxCell>
        <mxCell id="xRv7cFnwkmTu5II-aoX4-3" style="edgeStyle=orthogonalEdgeStyle;rounded=1;orthogonalLoop=1;jettySize=auto;html=1;exitX=0;exitY=0.5;exitDx=0;exitDy=0;entryX=0;entryY=0.5;entryDx=0;entryDy=0;curved=0;" parent="WIyWlLk6GJQsqaUBKTNV-1" source="FNTynwL7D7JjEhf0KSwz-104" target="xRv7cFnwkmTu5II-aoX4-2" edge="1">
          <mxGeometry relative="1" as="geometry">
            <Array as="points">
              <mxPoint x="350" y="681" />
              <mxPoint x="350" y="510" />
              <mxPoint x="430" y="510" />
              <mxPoint x="430" y="340" />
              <mxPoint x="505" y="340" />
            </Array>
          </mxGeometry>
        </mxCell>
        <mxCell id="te0-8tFauTpVpJCCD52G-0" style="edgeStyle=orthogonalEdgeStyle;rounded=1;orthogonalLoop=1;jettySize=auto;html=1;exitX=1;exitY=0.5;exitDx=0;exitDy=0;entryX=0;entryY=0.5;entryDx=0;entryDy=0;curved=0;" edge="1" parent="WIyWlLk6GJQsqaUBKTNV-1" source="FNTynwL7D7JjEhf0KSwz-128" target="FNTynwL7D7JjEhf0KSwz-44">
          <mxGeometry relative="1" as="geometry">
            <Array as="points">
              <mxPoint x="740" y="560" />
              <mxPoint x="740" y="500" />
              <mxPoint x="760" y="500" />
              <mxPoint x="760" y="508" />
            </Array>
          </mxGeometry>
        </mxCell>
      </root>
    </mxGraphModel>
  </diagram>
</mxfile>
